<svg width="18" height="16" viewBox="0 0 18 16" fill="none" xmlns="http://www.w3.org/2000/svg">
<path fill-rule="evenodd" clip-rule="evenodd" d="M0 2C0 0.89543 0.895431 0 2 0H16C17.1046 0 18 0.895431 18 2V11C18 12.1046 17.1046 13 16 13L9.38374 13L6.50345 15.5923C5.53816 16.461 4 15.776 4 14.4773V13H2C0.89543 13 0 12.1046 0 11V2ZM4 4C3.44772 4 3 4.44772 3 5C3 5.55228 3.44772 6 4 6H9C9.55228 6 10 5.55228 10 5C10 4.44772 9.55228 4 9 4H4ZM12 4C11.4477 4 11 4.44772 11 5C11 5.55228 11.4477 6 12 6H14C14.5523 6 15 5.55228 15 5C15 4.44772 14.5523 4 14 4H12ZM4 7C3.44772 7 3 7.44772 3 8C3 8.55228 3.44772 9 4 9H6C6.55228 9 7 8.55228 7 8C7 7.44772 6.55228 7 6 7H4ZM9 7C8.44772 7 8 7.44772 8 8C8 8.55228 8.44772 9 9 9H14C14.5523 9 15 8.55228 15 8C15 7.44772 14.5523 7 14 7H9Z" fill="#3D4C65"/>
</svg>
